{
  "asset": {
    "version": "2.0",
    "generator": "WebAR simple test model"
  },
  "scene": 0,
  "scenes": [{ "nodes": [0] }],
  "nodes": [{ "mesh": 0, "name": "Simple Test Cube" }],
  "meshes": [
    {
      "name": "SimpleTestCube",
      "primitives": [
        {
          "attributes": { "POSITION": 0, "NORMAL": 1 },
          "indices": 2,
          "material": 0
        }
      ]
    }
  ],
  "materials": [
    {
      "name": "HighVisibilityBlue",
      "pbrMetallicRoughness": {
        "baseColorFactor": [0.0, 0.45, 1.0, 1.0],
        "metallicFactor": 0,
        "roughnessFactor": 0.35
      }
    }
  ],
  "accessors": [
    {
      "bufferView": 0,
      "componentType": 5126,
      "count": 24,
      "type": "VEC3",
      "min": [-3, 0, -3],
      "max": [3, 6, 3]
    },
    {
      "bufferView": 1,
      "componentType": 5126,
      "count": 24,
      "type": "VEC3"
    },
    {
      "bufferView": 2,
      "componentType": 5123,
      "count": 36,
      "type": "SCALAR"
    }
  ],
  "bufferViews": [
    { "buffer": 0, "byteOffset": 0, "byteLength": 288, "target": 34962 },
    { "buffer": 0, "byteOffset": 288, "byteLength": 288, "target": 34962 },
    { "buffer": 0, "byteOffset": 576, "byteLength": 72, "target": 34963 }
  ],
  "buffers": [
    {
      "uri": "data:application/octet-stream;base64,",
      "byteLength": 648
    }
  ]
}
